<svg
    aria-hidden="true"
    fill="none"
    xmlns="http://www.w3.org/2000/svg"
    viewBox="0 0 100 100"
    id="telegram"
>
    <path
        d="M50.0002 8.33325C38.9495 8.33325 28.3514 12.7231 20.5374 20.5371C12.7234 28.3512 8.3335 38.9492 8.3335 49.9999C8.3335 61.0506 12.7234 71.6487 20.5374 79.4627C28.3514 87.2767 38.9495 91.6666 50.0002 91.6666C61.0508 91.6666 71.6489 87.2767 79.4629 79.4627C87.277 71.6487 91.6668 61.0506 91.6668 49.9999C91.6668 38.9492 87.277 28.3512 79.4629 20.5371C71.6489 12.7231 61.0508 8.33325 50.0002 8.33325Z"
        fill="#38B7FF"
    ></path>
    <path
        d="M70.7293 31.2501L62.9252 71.0959C62.9252 71.0959 62.5897 72.9168 60.3314 72.9168C59.1314 72.9168 58.5127 72.3459 58.5127 72.3459L41.6085 58.3188L33.3377 54.1501L22.7231 51.3272C22.7231 51.3272 20.8335 50.7813 20.8335 49.2188C20.8335 47.9168 22.7772 47.2959 22.7772 47.2959L67.1856 29.6543C67.1856 29.6543 68.5418 29.1647 69.5314 29.1668C70.1397 29.1668 70.8335 29.4272 70.8335 30.2084C70.8335 30.7293 70.7293 31.2501 70.7293 31.2501Z"
        fill="white"
    ></path>
    <path
        d="M47.9169 63.5522L40.7794 70.5814C40.7794 70.5814 40.469 70.8209 40.0544 70.8314C39.9106 70.8355 39.7565 70.8126 39.5981 70.7418L41.6065 58.3147L47.9169 63.5522Z"
        fill="#B0BEC5"
    ></path>
    <path
        d="M62.2856 37.9084C61.9335 37.45 61.2835 37.3667 60.8252 37.7146L33.3335 54.1667C33.3335 54.1667 37.721 66.4417 38.3897 68.5667C39.0606 70.6938 39.5981 70.7438 39.5981 70.7438L41.6064 58.3167L62.0897 39.3667C62.5481 39.0188 62.6335 38.3667 62.2856 37.9084Z"
        fill="#CFD8DC"
    ></path>
</svg>